<mxfile host="app.diagrams.net" modified="2023-10-11T17:04:36.729Z" agent="Mozilla/5.0 (Windows NT 10.0; Win64; x64) AppleWebKit/537.36 (KHTML, like Gecko) Chrome/117.0.0.0 Safari/537.36" etag="Iu_YuK67PZh3zYwAlUqR" version="21.7.5" type="device" pages="3">
  <diagram id="C5RBs43oDa-KdzZeNtuy" name="Page-1">
    <mxGraphModel dx="1985" dy="2098" grid="1" gridSize="10" guides="1" tooltips="1" connect="1" arrows="1" fold="1" page="1" pageScale="1" pageWidth="827" pageHeight="1169" math="0" shadow="0">
      <root>
        <mxCell id="WIyWlLk6GJQsqaUBKTNV-0" />
        <mxCell id="WIyWlLk6GJQsqaUBKTNV-1" parent="WIyWlLk6GJQsqaUBKTNV-0" />
        <mxCell id="2cAo8hn-__XUa9pAZBkK-10" style="edgeStyle=orthogonalEdgeStyle;rounded=0;orthogonalLoop=1;jettySize=auto;html=1;entryX=0.5;entryY=0;entryDx=0;entryDy=0;" edge="1" parent="WIyWlLk6GJQsqaUBKTNV-1" source="2cAo8hn-__XUa9pAZBkK-0" target="2cAo8hn-__XUa9pAZBkK-2">
          <mxGeometry relative="1" as="geometry" />
        </mxCell>
        <mxCell id="2cAo8hn-__XUa9pAZBkK-0" value="START" style="strokeWidth=2;html=1;shape=mxgraph.flowchart.terminator;whiteSpace=wrap;fontStyle=1" vertex="1" parent="WIyWlLk6GJQsqaUBKTNV-1">
          <mxGeometry x="630" width="100" height="60" as="geometry" />
        </mxCell>
        <mxCell id="2cAo8hn-__XUa9pAZBkK-1" value="END" style="strokeWidth=2;html=1;shape=mxgraph.flowchart.terminator;whiteSpace=wrap;fontStyle=1" vertex="1" parent="WIyWlLk6GJQsqaUBKTNV-1">
          <mxGeometry x="1066" y="1250" width="100" height="60" as="geometry" />
        </mxCell>
        <mxCell id="2cAo8hn-__XUa9pAZBkK-12" style="edgeStyle=orthogonalEdgeStyle;rounded=0;orthogonalLoop=1;jettySize=auto;html=1;" edge="1" parent="WIyWlLk6GJQsqaUBKTNV-1" source="2cAo8hn-__XUa9pAZBkK-2" target="2cAo8hn-__XUa9pAZBkK-4">
          <mxGeometry relative="1" as="geometry" />
        </mxCell>
        <mxCell id="2cAo8hn-__XUa9pAZBkK-2" value="" style="verticalLabelPosition=bottom;verticalAlign=top;html=1;shape=hexagon;perimeter=hexagonPerimeter2;arcSize=6;size=0.27;fontStyle=1" vertex="1" parent="WIyWlLk6GJQsqaUBKTNV-1">
          <mxGeometry x="560" y="90" width="240" height="120" as="geometry" />
        </mxCell>
        <mxCell id="2cAo8hn-__XUa9pAZBkK-3" value="INITIALIZE evenSum as 0&lt;br&gt;INITIALIZE oddProduct as 1&lt;br&gt;INITIALIZE evenCount as 0&lt;br&gt;INITIALIZE numbers as 10&lt;br&gt;INITIALIZE average as float" style="text;html=1;align=center;verticalAlign=middle;resizable=0;points=[];autosize=1;strokeColor=none;fillColor=none;fontStyle=0" vertex="1" parent="WIyWlLk6GJQsqaUBKTNV-1">
          <mxGeometry x="595" y="105" width="170" height="90" as="geometry" />
        </mxCell>
        <mxCell id="2cAo8hn-__XUa9pAZBkK-13" style="edgeStyle=orthogonalEdgeStyle;rounded=0;orthogonalLoop=1;jettySize=auto;html=1;entryX=0.5;entryY=0.467;entryDx=0;entryDy=0;entryPerimeter=0;" edge="1" parent="WIyWlLk6GJQsqaUBKTNV-1" source="2cAo8hn-__XUa9pAZBkK-4" target="2cAo8hn-__XUa9pAZBkK-5">
          <mxGeometry relative="1" as="geometry" />
        </mxCell>
        <mxCell id="2cAo8hn-__XUa9pAZBkK-4" value="PROMPT and READ integer, i" style="shape=parallelogram;html=1;strokeWidth=2;perimeter=parallelogramPerimeter;whiteSpace=wrap;rounded=1;arcSize=12;size=0.23;" vertex="1" parent="WIyWlLk6GJQsqaUBKTNV-1">
          <mxGeometry x="560" y="250" width="240" height="80" as="geometry" />
        </mxCell>
        <mxCell id="2cAo8hn-__XUa9pAZBkK-14" style="edgeStyle=orthogonalEdgeStyle;rounded=0;orthogonalLoop=1;jettySize=auto;html=1;" edge="1" parent="WIyWlLk6GJQsqaUBKTNV-1" source="2cAo8hn-__XUa9pAZBkK-5" target="2cAo8hn-__XUa9pAZBkK-6">
          <mxGeometry relative="1" as="geometry" />
        </mxCell>
        <mxCell id="2cAo8hn-__XUa9pAZBkK-5" value="" style="verticalLabelPosition=bottom;verticalAlign=top;html=1;shape=mxgraph.flowchart.or;" vertex="1" parent="WIyWlLk6GJQsqaUBKTNV-1">
          <mxGeometry x="665" y="370" width="30" height="30" as="geometry" />
        </mxCell>
        <mxCell id="2cAo8hn-__XUa9pAZBkK-15" style="edgeStyle=orthogonalEdgeStyle;rounded=0;orthogonalLoop=1;jettySize=auto;html=1;entryX=0;entryY=0.5;entryDx=0;entryDy=0;entryPerimeter=0;" edge="1" parent="WIyWlLk6GJQsqaUBKTNV-1" source="2cAo8hn-__XUa9pAZBkK-6" target="2cAo8hn-__XUa9pAZBkK-8">
          <mxGeometry relative="1" as="geometry" />
        </mxCell>
        <mxCell id="2cAo8hn-__XUa9pAZBkK-55" style="edgeStyle=orthogonalEdgeStyle;rounded=0;orthogonalLoop=1;jettySize=auto;html=1;" edge="1" parent="WIyWlLk6GJQsqaUBKTNV-1" source="2cAo8hn-__XUa9pAZBkK-6" target="2cAo8hn-__XUa9pAZBkK-54">
          <mxGeometry relative="1" as="geometry" />
        </mxCell>
        <mxCell id="2cAo8hn-__XUa9pAZBkK-6" value="is i &amp;lt; 11?" style="strokeWidth=2;html=1;shape=mxgraph.flowchart.decision;whiteSpace=wrap;" vertex="1" parent="WIyWlLk6GJQsqaUBKTNV-1">
          <mxGeometry x="630" y="440" width="100" height="100" as="geometry" />
        </mxCell>
        <mxCell id="2cAo8hn-__XUa9pAZBkK-16" style="edgeStyle=orthogonalEdgeStyle;rounded=0;orthogonalLoop=1;jettySize=auto;html=1;entryX=0.571;entryY=-0.044;entryDx=0;entryDy=0;entryPerimeter=0;" edge="1" parent="WIyWlLk6GJQsqaUBKTNV-1" source="2cAo8hn-__XUa9pAZBkK-8" target="2cAo8hn-__XUa9pAZBkK-9">
          <mxGeometry relative="1" as="geometry" />
        </mxCell>
        <mxCell id="2cAo8hn-__XUa9pAZBkK-26" style="edgeStyle=orthogonalEdgeStyle;rounded=0;orthogonalLoop=1;jettySize=auto;html=1;entryX=0.5;entryY=0;entryDx=0;entryDy=0;entryPerimeter=0;" edge="1" parent="WIyWlLk6GJQsqaUBKTNV-1" source="2cAo8hn-__XUa9pAZBkK-8" target="2cAo8hn-__XUa9pAZBkK-24">
          <mxGeometry relative="1" as="geometry" />
        </mxCell>
        <mxCell id="2cAo8hn-__XUa9pAZBkK-8" value="is oddCount 0&lt;br&gt;and evenCount &amp;gt; 0?" style="strokeWidth=2;html=1;shape=mxgraph.flowchart.decision;whiteSpace=wrap;" vertex="1" parent="WIyWlLk6GJQsqaUBKTNV-1">
          <mxGeometry x="800" y="425" width="150" height="130" as="geometry" />
        </mxCell>
        <mxCell id="2cAo8hn-__XUa9pAZBkK-51" style="edgeStyle=orthogonalEdgeStyle;rounded=0;orthogonalLoop=1;jettySize=auto;html=1;" edge="1" parent="WIyWlLk6GJQsqaUBKTNV-1">
          <mxGeometry relative="1" as="geometry">
            <mxPoint x="1430.9999999999998" y="680" as="sourcePoint" />
            <mxPoint x="1131" y="1200" as="targetPoint" />
            <Array as="points">
              <mxPoint x="1386" y="680" />
              <mxPoint x="1386" y="1200" />
            </Array>
          </mxGeometry>
        </mxCell>
        <mxCell id="2cAo8hn-__XUa9pAZBkK-9" value="DISPLAY average of even numbers&lt;br&gt;and product of odd numbers is 0" style="shape=parallelogram;html=1;strokeWidth=2;perimeter=parallelogramPerimeter;whiteSpace=wrap;rounded=1;arcSize=12;size=0.23;" vertex="1" parent="WIyWlLk6GJQsqaUBKTNV-1">
          <mxGeometry x="1246" y="590" width="280" height="90" as="geometry" />
        </mxCell>
        <mxCell id="2cAo8hn-__XUa9pAZBkK-29" style="edgeStyle=orthogonalEdgeStyle;rounded=0;orthogonalLoop=1;jettySize=auto;html=1;entryX=0.5;entryY=0;entryDx=0;entryDy=0;" edge="1" parent="WIyWlLk6GJQsqaUBKTNV-1" source="2cAo8hn-__XUa9pAZBkK-24" target="2cAo8hn-__XUa9pAZBkK-25">
          <mxGeometry relative="1" as="geometry" />
        </mxCell>
        <mxCell id="2cAo8hn-__XUa9pAZBkK-32" style="edgeStyle=orthogonalEdgeStyle;rounded=0;orthogonalLoop=1;jettySize=auto;html=1;" edge="1" parent="WIyWlLk6GJQsqaUBKTNV-1" source="2cAo8hn-__XUa9pAZBkK-24" target="2cAo8hn-__XUa9pAZBkK-31">
          <mxGeometry relative="1" as="geometry" />
        </mxCell>
        <mxCell id="2cAo8hn-__XUa9pAZBkK-24" value="is evenCount 0&lt;br&gt;and oddCount = 1?" style="strokeWidth=2;html=1;shape=mxgraph.flowchart.decision;whiteSpace=wrap;" vertex="1" parent="WIyWlLk6GJQsqaUBKTNV-1">
          <mxGeometry x="800" y="750" width="150" height="130" as="geometry" />
        </mxCell>
        <mxCell id="2cAo8hn-__XUa9pAZBkK-37" style="edgeStyle=orthogonalEdgeStyle;rounded=0;orthogonalLoop=1;jettySize=auto;html=1;entryX=0.5;entryY=0;entryDx=0;entryDy=0;entryPerimeter=0;" edge="1" parent="WIyWlLk6GJQsqaUBKTNV-1" source="2cAo8hn-__XUa9pAZBkK-25" target="2cAo8hn-__XUa9pAZBkK-33">
          <mxGeometry relative="1" as="geometry" />
        </mxCell>
        <mxCell id="2cAo8hn-__XUa9pAZBkK-25" value="DISPLAY average of even numbers is 0&lt;br&gt;and product of odd numbers" style="shape=parallelogram;html=1;strokeWidth=2;perimeter=parallelogramPerimeter;whiteSpace=wrap;rounded=1;arcSize=12;size=0.23;" vertex="1" parent="WIyWlLk6GJQsqaUBKTNV-1">
          <mxGeometry x="966" y="850" width="300" height="90" as="geometry" />
        </mxCell>
        <mxCell id="2cAo8hn-__XUa9pAZBkK-48" style="edgeStyle=orthogonalEdgeStyle;rounded=0;orthogonalLoop=1;jettySize=auto;html=1;entryX=0;entryY=0.5;entryDx=0;entryDy=0;entryPerimeter=0;" edge="1" parent="WIyWlLk6GJQsqaUBKTNV-1">
          <mxGeometry relative="1" as="geometry">
            <mxPoint x="866" y="1060" as="sourcePoint" />
            <mxPoint x="1101" y="1195" as="targetPoint" />
            <Array as="points">
              <mxPoint x="866" y="1195" />
            </Array>
          </mxGeometry>
        </mxCell>
        <mxCell id="2cAo8hn-__XUa9pAZBkK-31" value="DISPLAY average of even numbers&lt;br&gt;and product of odd numbers" style="shape=parallelogram;html=1;strokeWidth=2;perimeter=parallelogramPerimeter;whiteSpace=wrap;rounded=1;arcSize=12;size=0.23;" vertex="1" parent="WIyWlLk6GJQsqaUBKTNV-1">
          <mxGeometry x="725" y="970" width="300" height="90" as="geometry" />
        </mxCell>
        <mxCell id="2cAo8hn-__XUa9pAZBkK-52" style="edgeStyle=orthogonalEdgeStyle;rounded=0;orthogonalLoop=1;jettySize=auto;html=1;" edge="1" parent="WIyWlLk6GJQsqaUBKTNV-1" source="2cAo8hn-__XUa9pAZBkK-33" target="2cAo8hn-__XUa9pAZBkK-1">
          <mxGeometry relative="1" as="geometry" />
        </mxCell>
        <mxCell id="2cAo8hn-__XUa9pAZBkK-33" value="" style="verticalLabelPosition=bottom;verticalAlign=top;html=1;shape=mxgraph.flowchart.or;" vertex="1" parent="WIyWlLk6GJQsqaUBKTNV-1">
          <mxGeometry x="1101" y="1180" width="30" height="30" as="geometry" />
        </mxCell>
        <mxCell id="2cAo8hn-__XUa9pAZBkK-53" value="" style="verticalLabelPosition=bottom;verticalAlign=top;html=1;shape=mxgraph.flowchart.on-page_reference;" vertex="1" parent="WIyWlLk6GJQsqaUBKTNV-1">
          <mxGeometry x="657" y="570" width="46" height="40" as="geometry" />
        </mxCell>
        <mxCell id="2cAo8hn-__XUa9pAZBkK-54" value="A" style="text;html=1;align=center;verticalAlign=middle;resizable=0;points=[];autosize=1;strokeColor=none;fillColor=none;" vertex="1" parent="WIyWlLk6GJQsqaUBKTNV-1">
          <mxGeometry x="665" y="575" width="30" height="30" as="geometry" />
        </mxCell>
        <mxCell id="2cAo8hn-__XUa9pAZBkK-56" value="NO" style="text;html=1;align=center;verticalAlign=middle;resizable=0;points=[];autosize=1;strokeColor=none;fillColor=none;" vertex="1" parent="WIyWlLk6GJQsqaUBKTNV-1">
          <mxGeometry x="730" y="460" width="40" height="30" as="geometry" />
        </mxCell>
        <mxCell id="2cAo8hn-__XUa9pAZBkK-57" value="YES" style="text;html=1;align=center;verticalAlign=middle;resizable=0;points=[];autosize=1;strokeColor=none;fillColor=none;" vertex="1" parent="WIyWlLk6GJQsqaUBKTNV-1">
          <mxGeometry x="630" y="540" width="50" height="30" as="geometry" />
        </mxCell>
        <mxCell id="2cAo8hn-__XUa9pAZBkK-58" value="NO" style="text;html=1;align=center;verticalAlign=middle;resizable=0;points=[];autosize=1;strokeColor=none;fillColor=none;" vertex="1" parent="WIyWlLk6GJQsqaUBKTNV-1">
          <mxGeometry x="836" y="555" width="40" height="30" as="geometry" />
        </mxCell>
        <mxCell id="2cAo8hn-__XUa9pAZBkK-59" value="YES" style="text;html=1;align=center;verticalAlign=middle;resizable=0;points=[];autosize=1;strokeColor=none;fillColor=none;" vertex="1" parent="WIyWlLk6GJQsqaUBKTNV-1">
          <mxGeometry x="950" y="460" width="50" height="30" as="geometry" />
        </mxCell>
        <mxCell id="2cAo8hn-__XUa9pAZBkK-60" value="NO" style="text;html=1;align=center;verticalAlign=middle;resizable=0;points=[];autosize=1;strokeColor=none;fillColor=none;" vertex="1" parent="WIyWlLk6GJQsqaUBKTNV-1">
          <mxGeometry x="836" y="880" width="40" height="30" as="geometry" />
        </mxCell>
        <mxCell id="2cAo8hn-__XUa9pAZBkK-61" value="YES" style="text;html=1;align=center;verticalAlign=middle;resizable=0;points=[];autosize=1;strokeColor=none;fillColor=none;" vertex="1" parent="WIyWlLk6GJQsqaUBKTNV-1">
          <mxGeometry x="950" y="790" width="50" height="30" as="geometry" />
        </mxCell>
        <mxCell id="2cAo8hn-__XUa9pAZBkK-63" value="" style="verticalLabelPosition=bottom;verticalAlign=top;html=1;shape=mxgraph.flowchart.on-page_reference;" vertex="1" parent="WIyWlLk6GJQsqaUBKTNV-1">
          <mxGeometry x="87" y="361" width="46" height="40" as="geometry" />
        </mxCell>
        <mxCell id="2cAo8hn-__XUa9pAZBkK-67" style="edgeStyle=orthogonalEdgeStyle;rounded=0;orthogonalLoop=1;jettySize=auto;html=1;entryX=0.5;entryY=0;entryDx=0;entryDy=0;entryPerimeter=0;" edge="1" parent="WIyWlLk6GJQsqaUBKTNV-1" source="2cAo8hn-__XUa9pAZBkK-64" target="2cAo8hn-__XUa9pAZBkK-66">
          <mxGeometry relative="1" as="geometry" />
        </mxCell>
        <mxCell id="2cAo8hn-__XUa9pAZBkK-64" value="A" style="text;html=1;align=center;verticalAlign=middle;resizable=0;points=[];autosize=1;strokeColor=none;fillColor=none;" vertex="1" parent="WIyWlLk6GJQsqaUBKTNV-1">
          <mxGeometry x="95" y="366" width="30" height="30" as="geometry" />
        </mxCell>
        <mxCell id="2cAo8hn-__XUa9pAZBkK-69" style="edgeStyle=orthogonalEdgeStyle;rounded=0;orthogonalLoop=1;jettySize=auto;html=1;entryX=0;entryY=0.5;entryDx=0;entryDy=0;" edge="1" parent="WIyWlLk6GJQsqaUBKTNV-1" source="2cAo8hn-__XUa9pAZBkK-66" target="2cAo8hn-__XUa9pAZBkK-68">
          <mxGeometry relative="1" as="geometry" />
        </mxCell>
        <mxCell id="2cAo8hn-__XUa9pAZBkK-77" style="edgeStyle=orthogonalEdgeStyle;rounded=0;orthogonalLoop=1;jettySize=auto;html=1;" edge="1" parent="WIyWlLk6GJQsqaUBKTNV-1" source="2cAo8hn-__XUa9pAZBkK-66" target="2cAo8hn-__XUa9pAZBkK-74">
          <mxGeometry relative="1" as="geometry" />
        </mxCell>
        <mxCell id="2cAo8hn-__XUa9pAZBkK-66" value="is i an even number?" style="strokeWidth=2;html=1;shape=mxgraph.flowchart.decision;whiteSpace=wrap;" vertex="1" parent="WIyWlLk6GJQsqaUBKTNV-1">
          <mxGeometry x="35" y="441" width="150" height="130" as="geometry" />
        </mxCell>
        <mxCell id="2cAo8hn-__XUa9pAZBkK-71" style="edgeStyle=orthogonalEdgeStyle;rounded=0;orthogonalLoop=1;jettySize=auto;html=1;" edge="1" parent="WIyWlLk6GJQsqaUBKTNV-1" source="2cAo8hn-__XUa9pAZBkK-68" target="2cAo8hn-__XUa9pAZBkK-70">
          <mxGeometry relative="1" as="geometry" />
        </mxCell>
        <mxCell id="2cAo8hn-__XUa9pAZBkK-68" value="INCREMENT evenCount by 1,&lt;br&gt;evenCount++" style="rounded=1;whiteSpace=wrap;html=1;absoluteArcSize=1;arcSize=14;strokeWidth=2;" vertex="1" parent="WIyWlLk6GJQsqaUBKTNV-1">
          <mxGeometry x="295" y="456" width="200" height="100" as="geometry" />
        </mxCell>
        <mxCell id="2cAo8hn-__XUa9pAZBkK-73" style="edgeStyle=orthogonalEdgeStyle;rounded=0;orthogonalLoop=1;jettySize=auto;html=1;" edge="1" parent="WIyWlLk6GJQsqaUBKTNV-1" source="2cAo8hn-__XUa9pAZBkK-70" target="2cAo8hn-__XUa9pAZBkK-72">
          <mxGeometry relative="1" as="geometry" />
        </mxCell>
        <mxCell id="2cAo8hn-__XUa9pAZBkK-70" value="CALCULATE evenSum,&lt;br&gt;evenSum += numbers" style="rounded=1;whiteSpace=wrap;html=1;absoluteArcSize=1;arcSize=14;strokeWidth=2;" vertex="1" parent="WIyWlLk6GJQsqaUBKTNV-1">
          <mxGeometry x="295" y="601" width="200" height="100" as="geometry" />
        </mxCell>
        <mxCell id="2cAo8hn-__XUa9pAZBkK-82" style="edgeStyle=orthogonalEdgeStyle;rounded=0;orthogonalLoop=1;jettySize=auto;html=1;entryX=1;entryY=0.5;entryDx=0;entryDy=0;entryPerimeter=0;" edge="1" parent="WIyWlLk6GJQsqaUBKTNV-1" source="2cAo8hn-__XUa9pAZBkK-72" target="2cAo8hn-__XUa9pAZBkK-80">
          <mxGeometry relative="1" as="geometry">
            <Array as="points">
              <mxPoint x="395" y="916" />
            </Array>
          </mxGeometry>
        </mxCell>
        <mxCell id="2cAo8hn-__XUa9pAZBkK-72" value="CALCULATE average,&lt;br&gt;average = evenSum / evenCount" style="rounded=1;whiteSpace=wrap;html=1;absoluteArcSize=1;arcSize=14;strokeWidth=2;" vertex="1" parent="WIyWlLk6GJQsqaUBKTNV-1">
          <mxGeometry x="295" y="731" width="200" height="100" as="geometry" />
        </mxCell>
        <mxCell id="2cAo8hn-__XUa9pAZBkK-79" style="edgeStyle=orthogonalEdgeStyle;rounded=0;orthogonalLoop=1;jettySize=auto;html=1;" edge="1" parent="WIyWlLk6GJQsqaUBKTNV-1" source="2cAo8hn-__XUa9pAZBkK-74" target="2cAo8hn-__XUa9pAZBkK-78">
          <mxGeometry relative="1" as="geometry" />
        </mxCell>
        <mxCell id="2cAo8hn-__XUa9pAZBkK-74" value="INCREMENT oddCount by 1,&lt;br&gt;oddCount++" style="rounded=1;whiteSpace=wrap;html=1;absoluteArcSize=1;arcSize=14;strokeWidth=2;" vertex="1" parent="WIyWlLk6GJQsqaUBKTNV-1">
          <mxGeometry x="10" y="611" width="200" height="100" as="geometry" />
        </mxCell>
        <mxCell id="2cAo8hn-__XUa9pAZBkK-81" style="edgeStyle=orthogonalEdgeStyle;rounded=0;orthogonalLoop=1;jettySize=auto;html=1;entryX=0.5;entryY=0;entryDx=0;entryDy=0;entryPerimeter=0;" edge="1" parent="WIyWlLk6GJQsqaUBKTNV-1" source="2cAo8hn-__XUa9pAZBkK-78" target="2cAo8hn-__XUa9pAZBkK-80">
          <mxGeometry relative="1" as="geometry" />
        </mxCell>
        <mxCell id="2cAo8hn-__XUa9pAZBkK-78" value="CALCULATE oddProduct,&lt;br&gt;oddProduct *= numbers" style="rounded=1;whiteSpace=wrap;html=1;absoluteArcSize=1;arcSize=14;strokeWidth=2;" vertex="1" parent="WIyWlLk6GJQsqaUBKTNV-1">
          <mxGeometry x="10" y="751" width="200" height="100" as="geometry" />
        </mxCell>
        <mxCell id="2cAo8hn-__XUa9pAZBkK-84" style="edgeStyle=orthogonalEdgeStyle;rounded=0;orthogonalLoop=1;jettySize=auto;html=1;" edge="1" parent="WIyWlLk6GJQsqaUBKTNV-1" source="2cAo8hn-__XUa9pAZBkK-80" target="2cAo8hn-__XUa9pAZBkK-83">
          <mxGeometry relative="1" as="geometry" />
        </mxCell>
        <mxCell id="2cAo8hn-__XUa9pAZBkK-80" value="" style="verticalLabelPosition=bottom;verticalAlign=top;html=1;shape=mxgraph.flowchart.or;" vertex="1" parent="WIyWlLk6GJQsqaUBKTNV-1">
          <mxGeometry x="95" y="901" width="30" height="30" as="geometry" />
        </mxCell>
        <mxCell id="2cAo8hn-__XUa9pAZBkK-86" style="edgeStyle=orthogonalEdgeStyle;rounded=0;orthogonalLoop=1;jettySize=auto;html=1;entryX=0;entryY=0.5;entryDx=0;entryDy=0;entryPerimeter=0;" edge="1" parent="WIyWlLk6GJQsqaUBKTNV-1" source="2cAo8hn-__XUa9pAZBkK-83" target="2cAo8hn-__XUa9pAZBkK-5">
          <mxGeometry relative="1" as="geometry">
            <Array as="points">
              <mxPoint x="110" y="1170" />
              <mxPoint x="550" y="1170" />
              <mxPoint x="550" y="385" />
            </Array>
          </mxGeometry>
        </mxCell>
        <mxCell id="2cAo8hn-__XUa9pAZBkK-83" value="INCREMENT i by 1,&lt;br&gt;i++" style="rounded=1;whiteSpace=wrap;html=1;absoluteArcSize=1;arcSize=14;strokeWidth=2;" vertex="1" parent="WIyWlLk6GJQsqaUBKTNV-1">
          <mxGeometry x="10" y="960" width="200" height="100" as="geometry" />
        </mxCell>
        <mxCell id="2cAo8hn-__XUa9pAZBkK-87" value="YES" style="text;html=1;align=center;verticalAlign=middle;resizable=0;points=[];autosize=1;strokeColor=none;fillColor=none;" vertex="1" parent="WIyWlLk6GJQsqaUBKTNV-1">
          <mxGeometry x="185" y="475" width="50" height="30" as="geometry" />
        </mxCell>
        <mxCell id="2cAo8hn-__XUa9pAZBkK-88" value="NO" style="text;html=1;align=center;verticalAlign=middle;resizable=0;points=[];autosize=1;strokeColor=none;fillColor=none;" vertex="1" parent="WIyWlLk6GJQsqaUBKTNV-1">
          <mxGeometry x="110" y="570" width="40" height="30" as="geometry" />
        </mxCell>
      </root>
    </mxGraphModel>
  </diagram>
  <diagram id="zSaUoISG5yeHpvOuAjM1" name="Page-2">
    <mxGraphModel dx="2537" dy="790" grid="1" gridSize="10" guides="1" tooltips="1" connect="1" arrows="1" fold="1" page="1" pageScale="1" pageWidth="850" pageHeight="1100" math="0" shadow="0">
      <root>
        <mxCell id="0" />
        <mxCell id="1" parent="0" />
        <mxCell id="1eYZ0JyH4iG88S3QTBqL-2" style="edgeStyle=orthogonalEdgeStyle;rounded=0;orthogonalLoop=1;jettySize=auto;html=1;" edge="1" parent="1" source="2uk3A2jW9LN2I4UTup_x-1" target="_uOZZDYMNiJ8CbhlgpIc-1">
          <mxGeometry relative="1" as="geometry" />
        </mxCell>
        <mxCell id="2uk3A2jW9LN2I4UTup_x-1" value="&lt;b&gt;START&lt;br&gt;&lt;/b&gt;" style="strokeWidth=2;html=1;shape=mxgraph.flowchart.terminator;whiteSpace=wrap;" vertex="1" parent="1">
          <mxGeometry x="191" y="30" width="100" height="60" as="geometry" />
        </mxCell>
        <mxCell id="2uk3A2jW9LN2I4UTup_x-2" value="&lt;b&gt;END&lt;br&gt;&lt;/b&gt;" style="strokeWidth=2;html=1;shape=mxgraph.flowchart.terminator;whiteSpace=wrap;" vertex="1" parent="1">
          <mxGeometry x="457.5" y="1000" width="100" height="60" as="geometry" />
        </mxCell>
        <mxCell id="AVljGpUYW8sYwbyuOVkh-4" style="edgeStyle=orthogonalEdgeStyle;rounded=0;orthogonalLoop=1;jettySize=auto;html=1;entryX=0.5;entryY=0;entryDx=0;entryDy=0;" edge="1" parent="1" source="_uOZZDYMNiJ8CbhlgpIc-1" target="AVljGpUYW8sYwbyuOVkh-3">
          <mxGeometry relative="1" as="geometry" />
        </mxCell>
        <mxCell id="_uOZZDYMNiJ8CbhlgpIc-1" value="" style="verticalLabelPosition=bottom;verticalAlign=top;html=1;shape=hexagon;perimeter=hexagonPerimeter2;arcSize=6;size=0.27;fontStyle=1" vertex="1" parent="1">
          <mxGeometry x="146" y="120" width="190" height="110" as="geometry" />
        </mxCell>
        <mxCell id="1eYZ0JyH4iG88S3QTBqL-1" value="INITIALIZE 828 as PASSCODE&lt;br&gt;INITIALIZE attempts to 1" style="text;html=1;align=center;verticalAlign=middle;resizable=0;points=[];autosize=1;strokeColor=none;fillColor=none;" vertex="1" parent="1">
          <mxGeometry x="146" y="160" width="190" height="40" as="geometry" />
        </mxCell>
        <mxCell id="CC-3cX3wUePAxSdMJPJV-2" style="edgeStyle=orthogonalEdgeStyle;rounded=0;orthogonalLoop=1;jettySize=auto;html=1;" edge="1" parent="1" source="AVljGpUYW8sYwbyuOVkh-2" target="CC-3cX3wUePAxSdMJPJV-1">
          <mxGeometry relative="1" as="geometry" />
        </mxCell>
        <mxCell id="AVljGpUYW8sYwbyuOVkh-2" value="" style="verticalLabelPosition=bottom;verticalAlign=top;html=1;shape=mxgraph.flowchart.or;" vertex="1" parent="1">
          <mxGeometry x="226" y="390" width="30" height="30" as="geometry" />
        </mxCell>
        <mxCell id="AVljGpUYW8sYwbyuOVkh-5" style="edgeStyle=orthogonalEdgeStyle;rounded=0;orthogonalLoop=1;jettySize=auto;html=1;" edge="1" parent="1" source="AVljGpUYW8sYwbyuOVkh-3" target="AVljGpUYW8sYwbyuOVkh-2">
          <mxGeometry relative="1" as="geometry" />
        </mxCell>
        <mxCell id="AVljGpUYW8sYwbyuOVkh-3" value="PROMPT and READ passcode,&lt;br&gt;passcode" style="shape=parallelogram;html=1;strokeWidth=2;perimeter=parallelogramPerimeter;whiteSpace=wrap;rounded=1;arcSize=12;size=0.23;" vertex="1" parent="1">
          <mxGeometry x="119" y="260" width="245" height="100" as="geometry" />
        </mxCell>
        <mxCell id="CC-3cX3wUePAxSdMJPJV-9" style="edgeStyle=orthogonalEdgeStyle;rounded=0;orthogonalLoop=1;jettySize=auto;html=1;" edge="1" parent="1" source="CC-3cX3wUePAxSdMJPJV-1" target="CC-3cX3wUePAxSdMJPJV-8">
          <mxGeometry relative="1" as="geometry" />
        </mxCell>
        <mxCell id="CC-3cX3wUePAxSdMJPJV-30" style="edgeStyle=orthogonalEdgeStyle;rounded=0;orthogonalLoop=1;jettySize=auto;html=1;entryX=1;entryY=0.5;entryDx=0;entryDy=0;entryPerimeter=0;" edge="1" parent="1" source="CC-3cX3wUePAxSdMJPJV-1" target="CC-3cX3wUePAxSdMJPJV-27">
          <mxGeometry relative="1" as="geometry">
            <Array as="points">
              <mxPoint x="640" y="505" />
              <mxPoint x="640" y="935" />
            </Array>
          </mxGeometry>
        </mxCell>
        <mxCell id="CC-3cX3wUePAxSdMJPJV-1" value="is attempts &amp;lt; 3?" style="strokeWidth=2;html=1;shape=mxgraph.flowchart.decision;whiteSpace=wrap;" vertex="1" parent="1">
          <mxGeometry x="184" y="450" width="114.5" height="110" as="geometry" />
        </mxCell>
        <mxCell id="CC-3cX3wUePAxSdMJPJV-23" style="edgeStyle=orthogonalEdgeStyle;rounded=0;orthogonalLoop=1;jettySize=auto;html=1;" edge="1" parent="1" source="CC-3cX3wUePAxSdMJPJV-3" target="CC-3cX3wUePAxSdMJPJV-5">
          <mxGeometry relative="1" as="geometry" />
        </mxCell>
        <mxCell id="CC-3cX3wUePAxSdMJPJV-3" value="DISPLAY incorrect passcode&lt;br&gt;you have more attempts,&lt;br&gt;3 - attempts" style="shape=parallelogram;html=1;strokeWidth=2;perimeter=parallelogramPerimeter;whiteSpace=wrap;rounded=1;arcSize=12;size=0.23;" vertex="1" parent="1">
          <mxGeometry x="-280" y="350" width="235" height="110" as="geometry" />
        </mxCell>
        <mxCell id="CC-3cX3wUePAxSdMJPJV-24" style="edgeStyle=orthogonalEdgeStyle;rounded=0;orthogonalLoop=1;jettySize=auto;html=1;entryX=0;entryY=0.5;entryDx=0;entryDy=0;entryPerimeter=0;" edge="1" parent="1" source="CC-3cX3wUePAxSdMJPJV-5" target="AVljGpUYW8sYwbyuOVkh-2">
          <mxGeometry relative="1" as="geometry">
            <Array as="points">
              <mxPoint x="-163" y="640" />
              <mxPoint x="57" y="640" />
              <mxPoint x="57" y="405" />
            </Array>
          </mxGeometry>
        </mxCell>
        <mxCell id="CC-3cX3wUePAxSdMJPJV-5" value="attempts++" style="rounded=1;whiteSpace=wrap;html=1;absoluteArcSize=1;arcSize=14;strokeWidth=2;" vertex="1" parent="1">
          <mxGeometry x="-213" y="500" width="100" height="100" as="geometry" />
        </mxCell>
        <mxCell id="CC-3cX3wUePAxSdMJPJV-11" style="edgeStyle=orthogonalEdgeStyle;rounded=0;orthogonalLoop=1;jettySize=auto;html=1;" edge="1" parent="1" source="CC-3cX3wUePAxSdMJPJV-8" target="CC-3cX3wUePAxSdMJPJV-10">
          <mxGeometry relative="1" as="geometry" />
        </mxCell>
        <mxCell id="CC-3cX3wUePAxSdMJPJV-8" value="PROMPT and READ numeric passcode,&lt;br&gt;passcode" style="shape=parallelogram;html=1;strokeWidth=2;perimeter=parallelogramPerimeter;whiteSpace=wrap;rounded=1;arcSize=12;size=0.23;" vertex="1" parent="1">
          <mxGeometry x="90" y="600" width="302" height="120" as="geometry" />
        </mxCell>
        <mxCell id="CC-3cX3wUePAxSdMJPJV-15" style="edgeStyle=orthogonalEdgeStyle;rounded=0;orthogonalLoop=1;jettySize=auto;html=1;" edge="1" parent="1" source="CC-3cX3wUePAxSdMJPJV-10" target="CC-3cX3wUePAxSdMJPJV-14">
          <mxGeometry relative="1" as="geometry" />
        </mxCell>
        <mxCell id="CC-3cX3wUePAxSdMJPJV-26" style="edgeStyle=orthogonalEdgeStyle;rounded=0;orthogonalLoop=1;jettySize=auto;html=1;entryX=0;entryY=0.5;entryDx=0;entryDy=0;" edge="1" parent="1" source="CC-3cX3wUePAxSdMJPJV-10" target="CC-3cX3wUePAxSdMJPJV-25">
          <mxGeometry relative="1" as="geometry" />
        </mxCell>
        <mxCell id="CC-3cX3wUePAxSdMJPJV-10" value="is passcode equal to&lt;br&gt;PASSCODE?" style="strokeWidth=2;html=1;shape=mxgraph.flowchart.decision;whiteSpace=wrap;" vertex="1" parent="1">
          <mxGeometry x="168.62" y="760" width="145.75" height="130" as="geometry" />
        </mxCell>
        <mxCell id="CC-3cX3wUePAxSdMJPJV-18" style="edgeStyle=orthogonalEdgeStyle;rounded=0;orthogonalLoop=1;jettySize=auto;html=1;" edge="1" parent="1" source="CC-3cX3wUePAxSdMJPJV-14" target="CC-3cX3wUePAxSdMJPJV-16">
          <mxGeometry relative="1" as="geometry" />
        </mxCell>
        <mxCell id="CC-3cX3wUePAxSdMJPJV-14" value="DISPLAY ACCESS DENIED!" style="shape=parallelogram;html=1;strokeWidth=2;perimeter=parallelogramPerimeter;whiteSpace=wrap;rounded=1;arcSize=12;size=0.23;" vertex="1" parent="1">
          <mxGeometry x="124" y="920" width="235" height="110" as="geometry" />
        </mxCell>
        <mxCell id="CC-3cX3wUePAxSdMJPJV-16" value="" style="verticalLabelPosition=bottom;verticalAlign=top;html=1;shape=mxgraph.flowchart.on-page_reference;" vertex="1" parent="1">
          <mxGeometry x="211" y="1060" width="60" height="60" as="geometry" />
        </mxCell>
        <mxCell id="CC-3cX3wUePAxSdMJPJV-17" value="A" style="text;html=1;align=center;verticalAlign=middle;resizable=0;points=[];autosize=1;strokeColor=none;fillColor=none;" vertex="1" parent="1">
          <mxGeometry x="226" y="1075" width="30" height="30" as="geometry" />
        </mxCell>
        <mxCell id="CC-3cX3wUePAxSdMJPJV-22" style="edgeStyle=orthogonalEdgeStyle;rounded=0;orthogonalLoop=1;jettySize=auto;html=1;" edge="1" parent="1" source="CC-3cX3wUePAxSdMJPJV-19" target="CC-3cX3wUePAxSdMJPJV-3">
          <mxGeometry relative="1" as="geometry" />
        </mxCell>
        <mxCell id="CC-3cX3wUePAxSdMJPJV-19" value="" style="verticalLabelPosition=bottom;verticalAlign=top;html=1;shape=mxgraph.flowchart.on-page_reference;" vertex="1" parent="1">
          <mxGeometry x="-192.5" y="250" width="60" height="60" as="geometry" />
        </mxCell>
        <mxCell id="CC-3cX3wUePAxSdMJPJV-20" value="A" style="text;html=1;align=center;verticalAlign=middle;resizable=0;points=[];autosize=1;strokeColor=none;fillColor=none;" vertex="1" parent="1">
          <mxGeometry x="-177.5" y="265" width="30" height="30" as="geometry" />
        </mxCell>
        <mxCell id="CC-3cX3wUePAxSdMJPJV-28" style="edgeStyle=orthogonalEdgeStyle;rounded=0;orthogonalLoop=1;jettySize=auto;html=1;entryX=0.5;entryY=0;entryDx=0;entryDy=0;entryPerimeter=0;" edge="1" parent="1" source="CC-3cX3wUePAxSdMJPJV-25" target="CC-3cX3wUePAxSdMJPJV-27">
          <mxGeometry relative="1" as="geometry" />
        </mxCell>
        <mxCell id="CC-3cX3wUePAxSdMJPJV-25" value="DISPLAY ACCESS GRANTED!" style="shape=parallelogram;html=1;strokeWidth=2;perimeter=parallelogramPerimeter;whiteSpace=wrap;rounded=1;arcSize=12;size=0.23;" vertex="1" parent="1">
          <mxGeometry x="390" y="770" width="235" height="110" as="geometry" />
        </mxCell>
        <mxCell id="CC-3cX3wUePAxSdMJPJV-29" style="edgeStyle=orthogonalEdgeStyle;rounded=0;orthogonalLoop=1;jettySize=auto;html=1;entryX=0.5;entryY=0;entryDx=0;entryDy=0;entryPerimeter=0;" edge="1" parent="1" source="CC-3cX3wUePAxSdMJPJV-27" target="2uk3A2jW9LN2I4UTup_x-2">
          <mxGeometry relative="1" as="geometry" />
        </mxCell>
        <mxCell id="CC-3cX3wUePAxSdMJPJV-27" value="" style="verticalLabelPosition=bottom;verticalAlign=top;html=1;shape=mxgraph.flowchart.or;" vertex="1" parent="1">
          <mxGeometry x="492.5" y="920" width="30" height="30" as="geometry" />
        </mxCell>
        <mxCell id="pf2eRNoio0y9z53zkACK-1" value="YES" style="text;html=1;align=center;verticalAlign=middle;resizable=0;points=[];autosize=1;strokeColor=none;fillColor=none;" vertex="1" parent="1">
          <mxGeometry x="298.5" y="480" width="50" height="30" as="geometry" />
        </mxCell>
        <mxCell id="pf2eRNoio0y9z53zkACK-2" value="NO" style="text;html=1;align=center;verticalAlign=middle;resizable=0;points=[];autosize=1;strokeColor=none;fillColor=none;" vertex="1" parent="1">
          <mxGeometry x="200" y="560" width="40" height="30" as="geometry" />
        </mxCell>
        <mxCell id="pf2eRNoio0y9z53zkACK-4" value="YES" style="text;html=1;align=center;verticalAlign=middle;resizable=0;points=[];autosize=1;strokeColor=none;fillColor=none;" vertex="1" parent="1">
          <mxGeometry x="314.37" y="800" width="50" height="30" as="geometry" />
        </mxCell>
        <mxCell id="pf2eRNoio0y9z53zkACK-6" value="NO" style="text;html=1;align=center;verticalAlign=middle;resizable=0;points=[];autosize=1;strokeColor=none;fillColor=none;" vertex="1" parent="1">
          <mxGeometry x="200" y="880" width="40" height="30" as="geometry" />
        </mxCell>
      </root>
    </mxGraphModel>
  </diagram>
  <diagram id="-JAX2Hpm2MM-VXyXRNO_" name="Page-3">
    <mxGraphModel dx="3917" dy="2536" grid="1" gridSize="10" guides="1" tooltips="1" connect="1" arrows="1" fold="1" page="1" pageScale="1" pageWidth="850" pageHeight="1100" math="0" shadow="0">
      <root>
        <mxCell id="0" />
        <mxCell id="1" parent="0" />
        <mxCell id="DHNR9YjNqf1AoPR-M__F-2" style="edgeStyle=orthogonalEdgeStyle;rounded=0;orthogonalLoop=1;jettySize=auto;html=1;entryX=0.5;entryY=0;entryDx=0;entryDy=0;entryPerimeter=0;" edge="1" parent="1" source="rMAIrorEzhCA4giylJwH-2" target="DHNR9YjNqf1AoPR-M__F-1">
          <mxGeometry relative="1" as="geometry" />
        </mxCell>
        <mxCell id="rMAIrorEzhCA4giylJwH-2" value="&lt;b&gt;START&lt;/b&gt;" style="strokeWidth=2;html=1;shape=mxgraph.flowchart.terminator;whiteSpace=wrap;" vertex="1" parent="1">
          <mxGeometry x="195" y="-160" width="100" height="60" as="geometry" />
        </mxCell>
        <mxCell id="rMAIrorEzhCA4giylJwH-3" value="&lt;b&gt;END&lt;/b&gt;" style="strokeWidth=2;html=1;shape=mxgraph.flowchart.terminator;whiteSpace=wrap;" vertex="1" parent="1">
          <mxGeometry x="-201.75" y="1570" width="100" height="60" as="geometry" />
        </mxCell>
        <mxCell id="rI4cwnE-2VUMRHsRp58S-6" style="edgeStyle=orthogonalEdgeStyle;rounded=0;orthogonalLoop=1;jettySize=auto;html=1;entryX=0.5;entryY=0;entryDx=0;entryDy=0;entryPerimeter=0;" edge="1" parent="1" source="rI4cwnE-2VUMRHsRp58S-3" target="rI4cwnE-2VUMRHsRp58S-5">
          <mxGeometry relative="1" as="geometry" />
        </mxCell>
        <mxCell id="rI4cwnE-2VUMRHsRp58S-3" value="PROMPT and GET user&#39;s choice,&lt;br&gt;choice" style="shape=parallelogram;html=1;strokeWidth=2;perimeter=parallelogramPerimeter;whiteSpace=wrap;rounded=1;arcSize=12;size=0.23;" vertex="1" parent="1">
          <mxGeometry x="117.5" y="180" width="255" height="90" as="geometry" />
        </mxCell>
        <mxCell id="rI4cwnE-2VUMRHsRp58S-9" style="edgeStyle=orthogonalEdgeStyle;rounded=0;orthogonalLoop=1;jettySize=auto;html=1;entryX=0.5;entryY=0;entryDx=0;entryDy=0;" edge="1" parent="1" source="rI4cwnE-2VUMRHsRp58S-5" target="rI4cwnE-2VUMRHsRp58S-7">
          <mxGeometry relative="1" as="geometry" />
        </mxCell>
        <mxCell id="rI4cwnE-2VUMRHsRp58S-18" style="edgeStyle=orthogonalEdgeStyle;rounded=0;orthogonalLoop=1;jettySize=auto;html=1;" edge="1" parent="1" source="rI4cwnE-2VUMRHsRp58S-5" target="rI4cwnE-2VUMRHsRp58S-16">
          <mxGeometry relative="1" as="geometry" />
        </mxCell>
        <mxCell id="rI4cwnE-2VUMRHsRp58S-5" value="is choice equal to 1?" style="strokeWidth=2;html=1;shape=mxgraph.flowchart.decision;whiteSpace=wrap;" vertex="1" parent="1">
          <mxGeometry x="177.5" y="310" width="135" height="110" as="geometry" />
        </mxCell>
        <mxCell id="rI4cwnE-2VUMRHsRp58S-11" style="edgeStyle=orthogonalEdgeStyle;rounded=0;orthogonalLoop=1;jettySize=auto;html=1;entryX=0.5;entryY=0;entryDx=0;entryDy=0;" edge="1" parent="1" source="rI4cwnE-2VUMRHsRp58S-7" target="rI4cwnE-2VUMRHsRp58S-10">
          <mxGeometry relative="1" as="geometry" />
        </mxCell>
        <mxCell id="rI4cwnE-2VUMRHsRp58S-7" value="PROMPT and GET the base and exponent,&lt;br&gt;base, exponent" style="shape=parallelogram;html=1;strokeWidth=2;perimeter=parallelogramPerimeter;whiteSpace=wrap;rounded=1;arcSize=12;size=0.23;" vertex="1" parent="1">
          <mxGeometry x="350" y="400" width="360" height="100" as="geometry" />
        </mxCell>
        <mxCell id="rI4cwnE-2VUMRHsRp58S-14" style="edgeStyle=orthogonalEdgeStyle;rounded=0;orthogonalLoop=1;jettySize=auto;html=1;entryX=0.5;entryY=0;entryDx=0;entryDy=0;" edge="1" parent="1" source="rI4cwnE-2VUMRHsRp58S-10" target="rI4cwnE-2VUMRHsRp58S-13">
          <mxGeometry relative="1" as="geometry" />
        </mxCell>
        <mxCell id="rI4cwnE-2VUMRHsRp58S-10" value="CALCULATE result,&lt;br&gt;result = base^exponent" style="rounded=1;whiteSpace=wrap;html=1;absoluteArcSize=1;arcSize=14;strokeWidth=2;" vertex="1" parent="1">
          <mxGeometry x="455" y="540" width="150" height="100" as="geometry" />
        </mxCell>
        <mxCell id="TqmPAoupVp24aiMdTwF0-39" style="edgeStyle=orthogonalEdgeStyle;rounded=0;orthogonalLoop=1;jettySize=auto;html=1;entryX=0.5;entryY=0;entryDx=0;entryDy=0;entryPerimeter=0;" edge="1" parent="1" source="rI4cwnE-2VUMRHsRp58S-13" target="TqmPAoupVp24aiMdTwF0-37">
          <mxGeometry relative="1" as="geometry" />
        </mxCell>
        <mxCell id="rI4cwnE-2VUMRHsRp58S-13" value="DISPLAY result" style="shape=parallelogram;html=1;strokeWidth=2;perimeter=parallelogramPerimeter;whiteSpace=wrap;rounded=1;arcSize=12;size=0.23;" vertex="1" parent="1">
          <mxGeometry x="420" y="670" width="220" height="60" as="geometry" />
        </mxCell>
        <mxCell id="2h7-dAihPzaUTnqT1w54-3" style="edgeStyle=orthogonalEdgeStyle;rounded=0;orthogonalLoop=1;jettySize=auto;html=1;entryX=0;entryY=0.5;entryDx=0;entryDy=0;entryPerimeter=0;" edge="1" parent="1" source="rI4cwnE-2VUMRHsRp58S-16" target="2h7-dAihPzaUTnqT1w54-1">
          <mxGeometry relative="1" as="geometry" />
        </mxCell>
        <mxCell id="vHtcN1U7UnWUYI40mnkr-6" style="edgeStyle=orthogonalEdgeStyle;rounded=0;orthogonalLoop=1;jettySize=auto;html=1;entryX=0.5;entryY=0;entryDx=0;entryDy=0;entryPerimeter=0;" edge="1" parent="1" source="rI4cwnE-2VUMRHsRp58S-16" target="vHtcN1U7UnWUYI40mnkr-5">
          <mxGeometry relative="1" as="geometry" />
        </mxCell>
        <mxCell id="rI4cwnE-2VUMRHsRp58S-16" value="is choice equal to 2?" style="strokeWidth=2;html=1;shape=mxgraph.flowchart.decision;whiteSpace=wrap;" vertex="1" parent="1">
          <mxGeometry x="177.5" y="760" width="135" height="110" as="geometry" />
        </mxCell>
        <mxCell id="pYsSYlFlwqpuDXN8Nm6p-1" value="YES" style="text;html=1;align=center;verticalAlign=middle;resizable=0;points=[];autosize=1;strokeColor=none;fillColor=none;" vertex="1" parent="1">
          <mxGeometry x="308.5" y="340" width="50" height="30" as="geometry" />
        </mxCell>
        <mxCell id="pYsSYlFlwqpuDXN8Nm6p-2" value="NO" style="text;html=1;align=center;verticalAlign=middle;resizable=0;points=[];autosize=1;strokeColor=none;fillColor=none;" vertex="1" parent="1">
          <mxGeometry x="210" y="420" width="40" height="30" as="geometry" />
        </mxCell>
        <mxCell id="2h7-dAihPzaUTnqT1w54-1" value="" style="verticalLabelPosition=bottom;verticalAlign=top;html=1;shape=mxgraph.flowchart.on-page_reference;" vertex="1" parent="1">
          <mxGeometry x="374" y="795" width="46" height="40" as="geometry" />
        </mxCell>
        <mxCell id="2h7-dAihPzaUTnqT1w54-2" value="A" style="text;html=1;align=center;verticalAlign=middle;resizable=0;points=[];autosize=1;strokeColor=none;fillColor=none;" vertex="1" parent="1">
          <mxGeometry x="382" y="800" width="30" height="30" as="geometry" />
        </mxCell>
        <mxCell id="2h7-dAihPzaUTnqT1w54-4" value="" style="verticalLabelPosition=bottom;verticalAlign=top;html=1;shape=mxgraph.flowchart.on-page_reference;" vertex="1" parent="1">
          <mxGeometry x="-485.5" y="40" width="46" height="40" as="geometry" />
        </mxCell>
        <mxCell id="2h7-dAihPzaUTnqT1w54-8" style="edgeStyle=orthogonalEdgeStyle;rounded=0;orthogonalLoop=1;jettySize=auto;html=1;" edge="1" parent="1" source="2h7-dAihPzaUTnqT1w54-5" target="2h7-dAihPzaUTnqT1w54-6">
          <mxGeometry relative="1" as="geometry" />
        </mxCell>
        <mxCell id="2h7-dAihPzaUTnqT1w54-5" value="A" style="text;html=1;align=center;verticalAlign=middle;resizable=0;points=[];autosize=1;strokeColor=none;fillColor=none;" vertex="1" parent="1">
          <mxGeometry x="-477.5" y="45" width="30" height="30" as="geometry" />
        </mxCell>
        <mxCell id="2h7-dAihPzaUTnqT1w54-12" style="edgeStyle=orthogonalEdgeStyle;rounded=0;orthogonalLoop=1;jettySize=auto;html=1;" edge="1" parent="1" source="2h7-dAihPzaUTnqT1w54-6" target="2h7-dAihPzaUTnqT1w54-9">
          <mxGeometry relative="1" as="geometry" />
        </mxCell>
        <mxCell id="2h7-dAihPzaUTnqT1w54-6" value="" style="verticalLabelPosition=bottom;verticalAlign=top;html=1;shape=hexagon;perimeter=hexagonPerimeter2;arcSize=6;size=0.27;" vertex="1" parent="1">
          <mxGeometry x="-541" y="110" width="157" height="90" as="geometry" />
        </mxCell>
        <mxCell id="2h7-dAihPzaUTnqT1w54-7" value="INITIALIZE factorial as 1&lt;br&gt;INITIALIZE count as 1" style="text;html=1;align=center;verticalAlign=middle;resizable=0;points=[];autosize=1;strokeColor=none;fillColor=none;" vertex="1" parent="1">
          <mxGeometry x="-537.5" y="135" width="150" height="40" as="geometry" />
        </mxCell>
        <mxCell id="2h7-dAihPzaUTnqT1w54-13" style="edgeStyle=orthogonalEdgeStyle;rounded=0;orthogonalLoop=1;jettySize=auto;html=1;" edge="1" parent="1" source="2h7-dAihPzaUTnqT1w54-9" target="2h7-dAihPzaUTnqT1w54-10">
          <mxGeometry relative="1" as="geometry" />
        </mxCell>
        <mxCell id="2h7-dAihPzaUTnqT1w54-9" value="PROMPT and GET number, n" style="shape=parallelogram;html=1;strokeWidth=2;perimeter=parallelogramPerimeter;whiteSpace=wrap;rounded=1;arcSize=12;size=0.23;" vertex="1" parent="1">
          <mxGeometry x="-590" y="230" width="255" height="90" as="geometry" />
        </mxCell>
        <mxCell id="2h7-dAihPzaUTnqT1w54-14" style="edgeStyle=orthogonalEdgeStyle;rounded=0;orthogonalLoop=1;jettySize=auto;html=1;" edge="1" parent="1" source="2h7-dAihPzaUTnqT1w54-10" target="2h7-dAihPzaUTnqT1w54-11">
          <mxGeometry relative="1" as="geometry" />
        </mxCell>
        <mxCell id="2h7-dAihPzaUTnqT1w54-26" style="edgeStyle=orthogonalEdgeStyle;rounded=0;orthogonalLoop=1;jettySize=auto;html=1;entryX=-0.006;entryY=0.395;entryDx=0;entryDy=0;entryPerimeter=0;" edge="1" parent="1" source="2h7-dAihPzaUTnqT1w54-10" target="2h7-dAihPzaUTnqT1w54-23">
          <mxGeometry relative="1" as="geometry" />
        </mxCell>
        <mxCell id="2h7-dAihPzaUTnqT1w54-10" value="is i &amp;lt;= n?" style="strokeWidth=2;html=1;shape=mxgraph.flowchart.decision;whiteSpace=wrap;" vertex="1" parent="1">
          <mxGeometry x="-512.5" y="350" width="100" height="100" as="geometry" />
        </mxCell>
        <mxCell id="2h7-dAihPzaUTnqT1w54-16" style="edgeStyle=orthogonalEdgeStyle;rounded=0;orthogonalLoop=1;jettySize=auto;html=1;entryX=0.5;entryY=0;entryDx=0;entryDy=0;" edge="1" parent="1" source="2h7-dAihPzaUTnqT1w54-11" target="2h7-dAihPzaUTnqT1w54-15">
          <mxGeometry relative="1" as="geometry" />
        </mxCell>
        <mxCell id="2h7-dAihPzaUTnqT1w54-11" value="INCREMENT count by 1,&lt;br&gt;count++" style="rounded=1;whiteSpace=wrap;html=1;absoluteArcSize=1;arcSize=14;strokeWidth=2;" vertex="1" parent="1">
          <mxGeometry x="-531.87" y="490" width="138.75" height="100" as="geometry" />
        </mxCell>
        <mxCell id="2h7-dAihPzaUTnqT1w54-18" style="edgeStyle=orthogonalEdgeStyle;rounded=0;orthogonalLoop=1;jettySize=auto;html=1;entryX=0.5;entryY=0;entryDx=0;entryDy=0;" edge="1" parent="1" source="2h7-dAihPzaUTnqT1w54-15" target="2h7-dAihPzaUTnqT1w54-17">
          <mxGeometry relative="1" as="geometry" />
        </mxCell>
        <mxCell id="2h7-dAihPzaUTnqT1w54-15" value="CALCULATE factorial,&lt;br&gt;factorial *= count" style="rounded=1;whiteSpace=wrap;html=1;absoluteArcSize=1;arcSize=14;strokeWidth=2;" vertex="1" parent="1">
          <mxGeometry x="-528.75" y="620" width="132.5" height="100" as="geometry" />
        </mxCell>
        <mxCell id="2h7-dAihPzaUTnqT1w54-28" style="edgeStyle=orthogonalEdgeStyle;rounded=0;orthogonalLoop=1;jettySize=auto;html=1;entryX=0.5;entryY=0;entryDx=0;entryDy=0;entryPerimeter=0;" edge="1" parent="1" source="2h7-dAihPzaUTnqT1w54-17" target="2h7-dAihPzaUTnqT1w54-27">
          <mxGeometry relative="1" as="geometry" />
        </mxCell>
        <mxCell id="2h7-dAihPzaUTnqT1w54-17" value="DISPLAY factorial" style="shape=parallelogram;html=1;strokeWidth=2;perimeter=parallelogramPerimeter;whiteSpace=wrap;rounded=1;arcSize=12;size=0.23;" vertex="1" parent="1">
          <mxGeometry x="-572.5" y="750" width="220" height="60" as="geometry" />
        </mxCell>
        <mxCell id="TqmPAoupVp24aiMdTwF0-16" style="edgeStyle=orthogonalEdgeStyle;rounded=0;orthogonalLoop=1;jettySize=auto;html=1;entryX=0.5;entryY=0;entryDx=0;entryDy=0;entryPerimeter=0;" edge="1" parent="1" source="2h7-dAihPzaUTnqT1w54-19" target="TqmPAoupVp24aiMdTwF0-14">
          <mxGeometry relative="1" as="geometry" />
        </mxCell>
        <mxCell id="2h7-dAihPzaUTnqT1w54-19" value="INCREMENT loop count by 1,&lt;br&gt;i++" style="rounded=1;whiteSpace=wrap;html=1;absoluteArcSize=1;arcSize=14;strokeWidth=2;" vertex="1" parent="1">
          <mxGeometry x="-548.43" y="890" width="171.88" height="100" as="geometry" />
        </mxCell>
        <mxCell id="vHtcN1U7UnWUYI40mnkr-3" style="edgeStyle=orthogonalEdgeStyle;rounded=0;orthogonalLoop=1;jettySize=auto;html=1;" edge="1" parent="1" source="2h7-dAihPzaUTnqT1w54-23" target="vHtcN1U7UnWUYI40mnkr-2">
          <mxGeometry relative="1" as="geometry" />
        </mxCell>
        <mxCell id="2h7-dAihPzaUTnqT1w54-23" value="INCREMENT loop count by 1,&lt;br&gt;i++" style="rounded=1;whiteSpace=wrap;html=1;absoluteArcSize=1;arcSize=14;strokeWidth=2;" vertex="1" parent="1">
          <mxGeometry x="-309.99999999999994" y="360" width="171.88" height="100" as="geometry" />
        </mxCell>
        <mxCell id="2h7-dAihPzaUTnqT1w54-29" style="edgeStyle=orthogonalEdgeStyle;rounded=0;orthogonalLoop=1;jettySize=auto;html=1;entryX=0.5;entryY=0;entryDx=0;entryDy=0;" edge="1" parent="1" source="2h7-dAihPzaUTnqT1w54-27" target="2h7-dAihPzaUTnqT1w54-19">
          <mxGeometry relative="1" as="geometry" />
        </mxCell>
        <mxCell id="2h7-dAihPzaUTnqT1w54-27" value="" style="verticalLabelPosition=bottom;verticalAlign=top;html=1;shape=mxgraph.flowchart.or;" vertex="1" parent="1">
          <mxGeometry x="-477.5" y="835" width="30" height="30" as="geometry" />
        </mxCell>
        <mxCell id="vHtcN1U7UnWUYI40mnkr-4" style="edgeStyle=orthogonalEdgeStyle;rounded=0;orthogonalLoop=1;jettySize=auto;html=1;entryX=1;entryY=0.5;entryDx=0;entryDy=0;entryPerimeter=0;" edge="1" parent="1" source="vHtcN1U7UnWUYI40mnkr-2" target="2h7-dAihPzaUTnqT1w54-27">
          <mxGeometry relative="1" as="geometry">
            <Array as="points">
              <mxPoint x="-224" y="850" />
            </Array>
          </mxGeometry>
        </mxCell>
        <mxCell id="vHtcN1U7UnWUYI40mnkr-2" value="BREAK" style="rounded=1;whiteSpace=wrap;html=1;absoluteArcSize=1;arcSize=14;strokeWidth=2;" vertex="1" parent="1">
          <mxGeometry x="-284.06" y="490" width="120" height="60" as="geometry" />
        </mxCell>
        <mxCell id="vHtcN1U7UnWUYI40mnkr-14" style="edgeStyle=orthogonalEdgeStyle;rounded=0;orthogonalLoop=1;jettySize=auto;html=1;entryX=0;entryY=0.5;entryDx=0;entryDy=0;entryPerimeter=0;" edge="1" parent="1" source="vHtcN1U7UnWUYI40mnkr-5" target="vHtcN1U7UnWUYI40mnkr-10">
          <mxGeometry relative="1" as="geometry" />
        </mxCell>
        <mxCell id="vHtcN1U7UnWUYI40mnkr-56" style="edgeStyle=orthogonalEdgeStyle;rounded=0;orthogonalLoop=1;jettySize=auto;html=1;" edge="1" parent="1" source="vHtcN1U7UnWUYI40mnkr-5" target="vHtcN1U7UnWUYI40mnkr-55">
          <mxGeometry relative="1" as="geometry" />
        </mxCell>
        <mxCell id="vHtcN1U7UnWUYI40mnkr-5" value="is choice equal to 2?" style="strokeWidth=2;html=1;shape=mxgraph.flowchart.decision;whiteSpace=wrap;" vertex="1" parent="1">
          <mxGeometry x="177.5" y="930" width="135" height="110" as="geometry" />
        </mxCell>
        <mxCell id="vHtcN1U7UnWUYI40mnkr-8" value="YES" style="text;html=1;align=center;verticalAlign=middle;resizable=0;points=[];autosize=1;strokeColor=none;fillColor=none;" vertex="1" parent="1">
          <mxGeometry x="300" y="790" width="50" height="30" as="geometry" />
        </mxCell>
        <mxCell id="vHtcN1U7UnWUYI40mnkr-9" value="NO" style="text;html=1;align=center;verticalAlign=middle;resizable=0;points=[];autosize=1;strokeColor=none;fillColor=none;" vertex="1" parent="1">
          <mxGeometry x="201.5" y="870" width="40" height="30" as="geometry" />
        </mxCell>
        <mxCell id="vHtcN1U7UnWUYI40mnkr-10" value="" style="verticalLabelPosition=bottom;verticalAlign=top;html=1;shape=mxgraph.flowchart.on-page_reference;" vertex="1" parent="1">
          <mxGeometry x="379" y="965" width="46" height="40" as="geometry" />
        </mxCell>
        <mxCell id="vHtcN1U7UnWUYI40mnkr-11" value="B" style="text;html=1;align=center;verticalAlign=middle;resizable=0;points=[];autosize=1;strokeColor=none;fillColor=none;" vertex="1" parent="1">
          <mxGeometry x="387" y="970" width="30" height="30" as="geometry" />
        </mxCell>
        <mxCell id="vHtcN1U7UnWUYI40mnkr-24" style="edgeStyle=orthogonalEdgeStyle;rounded=0;orthogonalLoop=1;jettySize=auto;html=1;exitX=0.5;exitY=1;exitDx=0;exitDy=0;exitPerimeter=0;entryX=0.5;entryY=0;entryDx=0;entryDy=0;" edge="1" parent="1" source="vHtcN1U7UnWUYI40mnkr-17" target="vHtcN1U7UnWUYI40mnkr-19">
          <mxGeometry relative="1" as="geometry" />
        </mxCell>
        <mxCell id="vHtcN1U7UnWUYI40mnkr-17" value="" style="verticalLabelPosition=bottom;verticalAlign=top;html=1;shape=mxgraph.flowchart.on-page_reference;" vertex="1" parent="1">
          <mxGeometry x="1050" y="40" width="46" height="40" as="geometry" />
        </mxCell>
        <mxCell id="vHtcN1U7UnWUYI40mnkr-18" value="B" style="text;html=1;align=center;verticalAlign=middle;resizable=0;points=[];autosize=1;strokeColor=none;fillColor=none;" vertex="1" parent="1">
          <mxGeometry x="1058" y="45" width="30" height="30" as="geometry" />
        </mxCell>
        <mxCell id="vHtcN1U7UnWUYI40mnkr-26" style="edgeStyle=orthogonalEdgeStyle;rounded=0;orthogonalLoop=1;jettySize=auto;html=1;" edge="1" parent="1" source="vHtcN1U7UnWUYI40mnkr-19" target="vHtcN1U7UnWUYI40mnkr-25">
          <mxGeometry relative="1" as="geometry" />
        </mxCell>
        <mxCell id="vHtcN1U7UnWUYI40mnkr-19" value="PROMPT and GET the constants,&lt;br&gt;a,b,c" style="shape=parallelogram;html=1;strokeWidth=2;perimeter=parallelogramPerimeter;whiteSpace=wrap;rounded=1;arcSize=12;size=0.23;" vertex="1" parent="1">
          <mxGeometry x="942.75" y="120" width="260.5" height="90" as="geometry" />
        </mxCell>
        <mxCell id="vHtcN1U7UnWUYI40mnkr-28" style="edgeStyle=orthogonalEdgeStyle;rounded=0;orthogonalLoop=1;jettySize=auto;html=1;" edge="1" parent="1" source="vHtcN1U7UnWUYI40mnkr-25" target="vHtcN1U7UnWUYI40mnkr-27">
          <mxGeometry relative="1" as="geometry" />
        </mxCell>
        <mxCell id="vHtcN1U7UnWUYI40mnkr-25" value="CALCULATE discriminant,&lt;br&gt;discriminant = b * b - 4 * a * c" style="rounded=1;whiteSpace=wrap;html=1;absoluteArcSize=1;arcSize=14;strokeWidth=2;" vertex="1" parent="1">
          <mxGeometry x="984" y="280" width="178" height="100" as="geometry" />
        </mxCell>
        <mxCell id="vHtcN1U7UnWUYI40mnkr-34" style="edgeStyle=orthogonalEdgeStyle;rounded=0;orthogonalLoop=1;jettySize=auto;html=1;entryX=0.5;entryY=0;entryDx=0;entryDy=0;" edge="1" parent="1" source="vHtcN1U7UnWUYI40mnkr-27" target="vHtcN1U7UnWUYI40mnkr-33">
          <mxGeometry relative="1" as="geometry" />
        </mxCell>
        <mxCell id="vHtcN1U7UnWUYI40mnkr-36" style="edgeStyle=orthogonalEdgeStyle;rounded=0;orthogonalLoop=1;jettySize=auto;html=1;entryX=0.5;entryY=0;entryDx=0;entryDy=0;entryPerimeter=0;" edge="1" parent="1" source="vHtcN1U7UnWUYI40mnkr-27" target="vHtcN1U7UnWUYI40mnkr-35">
          <mxGeometry relative="1" as="geometry" />
        </mxCell>
        <mxCell id="vHtcN1U7UnWUYI40mnkr-27" value="is a and b equal to 0?" style="strokeWidth=2;html=1;shape=mxgraph.flowchart.decision;whiteSpace=wrap;" vertex="1" parent="1">
          <mxGeometry x="1005.5" y="410" width="135" height="110" as="geometry" />
        </mxCell>
        <mxCell id="5I74IrrD8Et23AJXojZq-36" style="edgeStyle=orthogonalEdgeStyle;rounded=0;orthogonalLoop=1;jettySize=auto;html=1;entryX=1;entryY=0.5;entryDx=0;entryDy=0;entryPerimeter=0;" edge="1" parent="1" source="vHtcN1U7UnWUYI40mnkr-33" target="5I74IrrD8Et23AJXojZq-32">
          <mxGeometry relative="1" as="geometry" />
        </mxCell>
        <mxCell id="vHtcN1U7UnWUYI40mnkr-33" value="DISPLAY there is no solution" style="shape=parallelogram;html=1;strokeWidth=2;perimeter=parallelogramPerimeter;whiteSpace=wrap;rounded=1;arcSize=12;size=0.23;" vertex="1" parent="1">
          <mxGeometry x="1540" y="510" width="238" height="80" as="geometry" />
        </mxCell>
        <mxCell id="vHtcN1U7UnWUYI40mnkr-39" style="edgeStyle=orthogonalEdgeStyle;rounded=0;orthogonalLoop=1;jettySize=auto;html=1;entryX=0.5;entryY=0;entryDx=0;entryDy=0;" edge="1" parent="1" source="vHtcN1U7UnWUYI40mnkr-35" target="vHtcN1U7UnWUYI40mnkr-37">
          <mxGeometry relative="1" as="geometry" />
        </mxCell>
        <mxCell id="vHtcN1U7UnWUYI40mnkr-43" style="edgeStyle=orthogonalEdgeStyle;rounded=0;orthogonalLoop=1;jettySize=auto;html=1;" edge="1" parent="1" source="vHtcN1U7UnWUYI40mnkr-35" target="vHtcN1U7UnWUYI40mnkr-42">
          <mxGeometry relative="1" as="geometry" />
        </mxCell>
        <mxCell id="vHtcN1U7UnWUYI40mnkr-35" value="is a equal to 0?" style="strokeWidth=2;html=1;shape=mxgraph.flowchart.decision;whiteSpace=wrap;" vertex="1" parent="1">
          <mxGeometry x="1005.5" y="600" width="135" height="110" as="geometry" />
        </mxCell>
        <mxCell id="vHtcN1U7UnWUYI40mnkr-41" style="edgeStyle=orthogonalEdgeStyle;rounded=0;orthogonalLoop=1;jettySize=auto;html=1;" edge="1" parent="1" source="vHtcN1U7UnWUYI40mnkr-37" target="vHtcN1U7UnWUYI40mnkr-40">
          <mxGeometry relative="1" as="geometry" />
        </mxCell>
        <mxCell id="vHtcN1U7UnWUYI40mnkr-37" value="CALCULATE root1,&lt;br&gt;root1 = -c / b" style="rounded=1;whiteSpace=wrap;html=1;absoluteArcSize=1;arcSize=14;strokeWidth=2;" vertex="1" parent="1">
          <mxGeometry x="1474" y="680" width="130" height="80" as="geometry" />
        </mxCell>
        <mxCell id="5I74IrrD8Et23AJXojZq-35" style="edgeStyle=orthogonalEdgeStyle;rounded=0;orthogonalLoop=1;jettySize=auto;html=1;entryX=0.5;entryY=0;entryDx=0;entryDy=0;entryPerimeter=0;" edge="1" parent="1" source="vHtcN1U7UnWUYI40mnkr-40" target="5I74IrrD8Et23AJXojZq-32">
          <mxGeometry relative="1" as="geometry" />
        </mxCell>
        <mxCell id="vHtcN1U7UnWUYI40mnkr-40" value="DISPLAY one solution found" style="shape=parallelogram;html=1;strokeWidth=2;perimeter=parallelogramPerimeter;whiteSpace=wrap;rounded=1;arcSize=12;size=0.23;" vertex="1" parent="1">
          <mxGeometry x="1420" y="800" width="238" height="80" as="geometry" />
        </mxCell>
        <mxCell id="vHtcN1U7UnWUYI40mnkr-45" style="edgeStyle=orthogonalEdgeStyle;rounded=0;orthogonalLoop=1;jettySize=auto;html=1;entryX=0.5;entryY=0;entryDx=0;entryDy=0;" edge="1" parent="1" source="vHtcN1U7UnWUYI40mnkr-42" target="vHtcN1U7UnWUYI40mnkr-44">
          <mxGeometry relative="1" as="geometry" />
        </mxCell>
        <mxCell id="5I74IrrD8Et23AJXojZq-27" style="edgeStyle=orthogonalEdgeStyle;rounded=0;orthogonalLoop=1;jettySize=auto;html=1;entryX=0.5;entryY=0;entryDx=0;entryDy=0;" edge="1" parent="1" source="vHtcN1U7UnWUYI40mnkr-42" target="5I74IrrD8Et23AJXojZq-26">
          <mxGeometry relative="1" as="geometry" />
        </mxCell>
        <mxCell id="vHtcN1U7UnWUYI40mnkr-42" value="is discriminant &amp;lt; 0?" style="strokeWidth=2;html=1;shape=mxgraph.flowchart.decision;whiteSpace=wrap;" vertex="1" parent="1">
          <mxGeometry x="1005.5" y="880" width="135" height="110" as="geometry" />
        </mxCell>
        <mxCell id="vHtcN1U7UnWUYI40mnkr-47" style="edgeStyle=orthogonalEdgeStyle;rounded=0;orthogonalLoop=1;jettySize=auto;html=1;entryX=0.5;entryY=0;entryDx=0;entryDy=0;" edge="1" parent="1" source="vHtcN1U7UnWUYI40mnkr-44" target="vHtcN1U7UnWUYI40mnkr-46">
          <mxGeometry relative="1" as="geometry" />
        </mxCell>
        <mxCell id="vHtcN1U7UnWUYI40mnkr-44" value="CALCULATE root1,&lt;br&gt;root1 = (-1 * b + sqrt(discriminant)) / 2 * a" style="rounded=1;whiteSpace=wrap;html=1;absoluteArcSize=1;arcSize=14;strokeWidth=2;" vertex="1" parent="1">
          <mxGeometry x="947" y="1040" width="252" height="80" as="geometry" />
        </mxCell>
        <mxCell id="vHtcN1U7UnWUYI40mnkr-49" style="edgeStyle=orthogonalEdgeStyle;rounded=0;orthogonalLoop=1;jettySize=auto;html=1;" edge="1" parent="1" source="vHtcN1U7UnWUYI40mnkr-46" target="vHtcN1U7UnWUYI40mnkr-48">
          <mxGeometry relative="1" as="geometry" />
        </mxCell>
        <mxCell id="vHtcN1U7UnWUYI40mnkr-46" value="CALCULATE root2,&lt;br&gt;root1 = (-1 * b - sqrt(discriminant)) / 2 * a" style="rounded=1;whiteSpace=wrap;html=1;absoluteArcSize=1;arcSize=14;strokeWidth=2;" vertex="1" parent="1">
          <mxGeometry x="947" y="1160" width="252" height="80" as="geometry" />
        </mxCell>
        <mxCell id="TqmPAoupVp24aiMdTwF0-43" style="edgeStyle=orthogonalEdgeStyle;rounded=0;orthogonalLoop=1;jettySize=auto;html=1;entryX=0.5;entryY=0;entryDx=0;entryDy=0;entryPerimeter=0;" edge="1" parent="1" source="vHtcN1U7UnWUYI40mnkr-48" target="TqmPAoupVp24aiMdTwF0-40">
          <mxGeometry relative="1" as="geometry" />
        </mxCell>
        <mxCell id="vHtcN1U7UnWUYI40mnkr-48" value="DISPLAY two solutions found,&lt;br&gt;root1, root2" style="shape=parallelogram;html=1;strokeWidth=2;perimeter=parallelogramPerimeter;whiteSpace=wrap;rounded=1;arcSize=12;size=0.23;" vertex="1" parent="1">
          <mxGeometry x="954" y="1270" width="238" height="80" as="geometry" />
        </mxCell>
        <mxCell id="vHtcN1U7UnWUYI40mnkr-60" style="edgeStyle=orthogonalEdgeStyle;rounded=0;orthogonalLoop=1;jettySize=auto;html=1;entryX=0;entryY=0.5;entryDx=0;entryDy=0;entryPerimeter=0;" edge="1" parent="1" source="vHtcN1U7UnWUYI40mnkr-55" target="vHtcN1U7UnWUYI40mnkr-57">
          <mxGeometry relative="1" as="geometry" />
        </mxCell>
        <mxCell id="5I74IrrD8Et23AJXojZq-3" style="edgeStyle=orthogonalEdgeStyle;rounded=0;orthogonalLoop=1;jettySize=auto;html=1;" edge="1" parent="1" source="vHtcN1U7UnWUYI40mnkr-55" target="5I74IrrD8Et23AJXojZq-1">
          <mxGeometry relative="1" as="geometry" />
        </mxCell>
        <mxCell id="vHtcN1U7UnWUYI40mnkr-55" value="is choice equal to 3?" style="strokeWidth=2;html=1;shape=mxgraph.flowchart.decision;whiteSpace=wrap;" vertex="1" parent="1">
          <mxGeometry x="177.5" y="1100" width="135" height="110" as="geometry" />
        </mxCell>
        <mxCell id="vHtcN1U7UnWUYI40mnkr-57" value="" style="verticalLabelPosition=bottom;verticalAlign=top;html=1;shape=mxgraph.flowchart.on-page_reference;" vertex="1" parent="1">
          <mxGeometry x="382" y="1135" width="46" height="40" as="geometry" />
        </mxCell>
        <mxCell id="vHtcN1U7UnWUYI40mnkr-58" value="C" style="text;html=1;align=center;verticalAlign=middle;resizable=0;points=[];autosize=1;strokeColor=none;fillColor=none;" vertex="1" parent="1">
          <mxGeometry x="390" y="1140" width="30" height="30" as="geometry" />
        </mxCell>
        <mxCell id="vHtcN1U7UnWUYI40mnkr-65" style="edgeStyle=orthogonalEdgeStyle;rounded=0;orthogonalLoop=1;jettySize=auto;html=1;exitX=0.5;exitY=1;exitDx=0;exitDy=0;exitPerimeter=0;" edge="1" parent="1" source="vHtcN1U7UnWUYI40mnkr-61" target="vHtcN1U7UnWUYI40mnkr-63">
          <mxGeometry relative="1" as="geometry" />
        </mxCell>
        <mxCell id="vHtcN1U7UnWUYI40mnkr-61" value="" style="verticalLabelPosition=bottom;verticalAlign=top;html=1;shape=mxgraph.flowchart.on-page_reference;" vertex="1" parent="1">
          <mxGeometry x="-174.75" y="1310" width="46" height="40" as="geometry" />
        </mxCell>
        <mxCell id="vHtcN1U7UnWUYI40mnkr-62" value="C" style="text;html=1;align=center;verticalAlign=middle;resizable=0;points=[];autosize=1;strokeColor=none;fillColor=none;" vertex="1" parent="1">
          <mxGeometry x="-166.75" y="1315" width="30" height="30" as="geometry" />
        </mxCell>
        <mxCell id="TqmPAoupVp24aiMdTwF0-10" style="edgeStyle=orthogonalEdgeStyle;rounded=0;orthogonalLoop=1;jettySize=auto;html=1;entryX=0.5;entryY=0;entryDx=0;entryDy=0;entryPerimeter=0;" edge="1" parent="1" source="vHtcN1U7UnWUYI40mnkr-63" target="TqmPAoupVp24aiMdTwF0-9">
          <mxGeometry relative="1" as="geometry" />
        </mxCell>
        <mxCell id="vHtcN1U7UnWUYI40mnkr-63" value="DISPLAY thank you for using ScarMath!" style="shape=parallelogram;html=1;strokeWidth=2;perimeter=parallelogramPerimeter;whiteSpace=wrap;rounded=1;arcSize=12;size=0.23;" vertex="1" parent="1">
          <mxGeometry x="-303" y="1380" width="302.5" height="90" as="geometry" />
        </mxCell>
        <mxCell id="TqmPAoupVp24aiMdTwF0-34" style="edgeStyle=orthogonalEdgeStyle;rounded=0;orthogonalLoop=1;jettySize=auto;html=1;entryX=0.5;entryY=0;entryDx=0;entryDy=0;entryPerimeter=0;" edge="1" parent="1" source="5I74IrrD8Et23AJXojZq-1" target="TqmPAoupVp24aiMdTwF0-32">
          <mxGeometry relative="1" as="geometry" />
        </mxCell>
        <mxCell id="5I74IrrD8Et23AJXojZq-1" value="DISPLAY please enter numbers 1 - 4 only" style="shape=parallelogram;html=1;strokeWidth=2;perimeter=parallelogramPerimeter;whiteSpace=wrap;rounded=1;arcSize=12;size=0.23;" vertex="1" parent="1">
          <mxGeometry x="91.88" y="1250" width="306.25" height="90" as="geometry" />
        </mxCell>
        <mxCell id="5I74IrrD8Et23AJXojZq-16" value="YES" style="text;html=1;align=center;verticalAlign=middle;resizable=0;points=[];autosize=1;strokeColor=none;fillColor=none;" vertex="1" parent="1">
          <mxGeometry x="-411.5" y="370" width="50" height="30" as="geometry" />
        </mxCell>
        <mxCell id="5I74IrrD8Et23AJXojZq-17" value="NO" style="text;html=1;align=center;verticalAlign=middle;resizable=0;points=[];autosize=1;strokeColor=none;fillColor=none;" vertex="1" parent="1">
          <mxGeometry x="-510" y="450" width="40" height="30" as="geometry" />
        </mxCell>
        <mxCell id="5I74IrrD8Et23AJXojZq-18" value="YES" style="text;html=1;align=center;verticalAlign=middle;resizable=0;points=[];autosize=1;strokeColor=none;fillColor=none;" vertex="1" parent="1">
          <mxGeometry x="300" y="955" width="50" height="30" as="geometry" />
        </mxCell>
        <mxCell id="5I74IrrD8Et23AJXojZq-19" value="NO" style="text;html=1;align=center;verticalAlign=middle;resizable=0;points=[];autosize=1;strokeColor=none;fillColor=none;" vertex="1" parent="1">
          <mxGeometry x="201.5" y="1035" width="40" height="30" as="geometry" />
        </mxCell>
        <mxCell id="5I74IrrD8Et23AJXojZq-20" value="YES" style="text;html=1;align=center;verticalAlign=middle;resizable=0;points=[];autosize=1;strokeColor=none;fillColor=none;" vertex="1" parent="1">
          <mxGeometry x="300" y="1130" width="50" height="30" as="geometry" />
        </mxCell>
        <mxCell id="5I74IrrD8Et23AJXojZq-21" value="NO" style="text;html=1;align=center;verticalAlign=middle;resizable=0;points=[];autosize=1;strokeColor=none;fillColor=none;" vertex="1" parent="1">
          <mxGeometry x="201.5" y="1210" width="40" height="30" as="geometry" />
        </mxCell>
        <mxCell id="5I74IrrD8Et23AJXojZq-22" value="YES" style="text;html=1;align=center;verticalAlign=middle;resizable=0;points=[];autosize=1;strokeColor=none;fillColor=none;" vertex="1" parent="1">
          <mxGeometry x="1128.5" y="630" width="50" height="30" as="geometry" />
        </mxCell>
        <mxCell id="5I74IrrD8Et23AJXojZq-23" value="NO" style="text;html=1;align=center;verticalAlign=middle;resizable=0;points=[];autosize=1;strokeColor=none;fillColor=none;" vertex="1" parent="1">
          <mxGeometry x="1030" y="710" width="40" height="30" as="geometry" />
        </mxCell>
        <mxCell id="5I74IrrD8Et23AJXojZq-24" value="YES" style="text;html=1;align=center;verticalAlign=middle;resizable=0;points=[];autosize=1;strokeColor=none;fillColor=none;" vertex="1" parent="1">
          <mxGeometry x="1128.5" y="440" width="50" height="30" as="geometry" />
        </mxCell>
        <mxCell id="5I74IrrD8Et23AJXojZq-25" value="NO" style="text;html=1;align=center;verticalAlign=middle;resizable=0;points=[];autosize=1;strokeColor=none;fillColor=none;" vertex="1" parent="1">
          <mxGeometry x="1030" y="520" width="40" height="30" as="geometry" />
        </mxCell>
        <mxCell id="5I74IrrD8Et23AJXojZq-34" style="edgeStyle=orthogonalEdgeStyle;rounded=0;orthogonalLoop=1;jettySize=auto;html=1;entryX=0.5;entryY=0;entryDx=0;entryDy=0;entryPerimeter=0;" edge="1" parent="1" source="5I74IrrD8Et23AJXojZq-26" target="5I74IrrD8Et23AJXojZq-28">
          <mxGeometry relative="1" as="geometry" />
        </mxCell>
        <mxCell id="5I74IrrD8Et23AJXojZq-26" value="DISPLAY there are no real roots" style="shape=parallelogram;html=1;strokeWidth=2;perimeter=parallelogramPerimeter;whiteSpace=wrap;rounded=1;arcSize=12;size=0.23;" vertex="1" parent="1">
          <mxGeometry x="1220" y="960" width="238" height="80" as="geometry" />
        </mxCell>
        <mxCell id="TqmPAoupVp24aiMdTwF0-42" style="edgeStyle=orthogonalEdgeStyle;rounded=0;orthogonalLoop=1;jettySize=auto;html=1;entryX=1;entryY=0.5;entryDx=0;entryDy=0;entryPerimeter=0;" edge="1" parent="1" source="5I74IrrD8Et23AJXojZq-28" target="TqmPAoupVp24aiMdTwF0-40">
          <mxGeometry relative="1" as="geometry" />
        </mxCell>
        <mxCell id="5I74IrrD8Et23AJXojZq-28" value="" style="verticalLabelPosition=bottom;verticalAlign=top;html=1;shape=mxgraph.flowchart.or;" vertex="1" parent="1">
          <mxGeometry x="1324" y="1400" width="30" height="30" as="geometry" />
        </mxCell>
        <mxCell id="5I74IrrD8Et23AJXojZq-37" style="edgeStyle=orthogonalEdgeStyle;rounded=0;orthogonalLoop=1;jettySize=auto;html=1;exitX=0;exitY=0.5;exitDx=0;exitDy=0;exitPerimeter=0;entryX=1;entryY=0.5;entryDx=0;entryDy=0;entryPerimeter=0;" edge="1" parent="1" source="5I74IrrD8Et23AJXojZq-32" target="5I74IrrD8Et23AJXojZq-28">
          <mxGeometry relative="1" as="geometry" />
        </mxCell>
        <mxCell id="5I74IrrD8Et23AJXojZq-32" value="" style="verticalLabelPosition=bottom;verticalAlign=top;html=1;shape=mxgraph.flowchart.or;" vertex="1" parent="1">
          <mxGeometry x="1524" y="1400" width="30" height="30" as="geometry" />
        </mxCell>
        <mxCell id="5I74IrrD8Et23AJXojZq-39" value="YES" style="text;html=1;align=center;verticalAlign=middle;resizable=0;points=[];autosize=1;strokeColor=none;fillColor=none;" vertex="1" parent="1">
          <mxGeometry x="1138.5" y="910" width="50" height="30" as="geometry" />
        </mxCell>
        <mxCell id="5I74IrrD8Et23AJXojZq-40" value="NO" style="text;html=1;align=center;verticalAlign=middle;resizable=0;points=[];autosize=1;strokeColor=none;fillColor=none;" vertex="1" parent="1">
          <mxGeometry x="1040" y="990" width="40" height="30" as="geometry" />
        </mxCell>
        <mxCell id="48AFSIEWqDW7JCnG5Q9u-1" style="edgeStyle=orthogonalEdgeStyle;rounded=0;orthogonalLoop=1;jettySize=auto;html=1;entryX=0.5;entryY=0;entryDx=0;entryDy=0;entryPerimeter=0;" edge="1" parent="1" source="DHNR9YjNqf1AoPR-M__F-1" target="DHNR9YjNqf1AoPR-M__F-3">
          <mxGeometry relative="1" as="geometry" />
        </mxCell>
        <mxCell id="DHNR9YjNqf1AoPR-M__F-1" value="" style="verticalLabelPosition=bottom;verticalAlign=top;html=1;shape=mxgraph.flowchart.or;" vertex="1" parent="1">
          <mxGeometry x="230" y="-60" width="30" height="30" as="geometry" />
        </mxCell>
        <mxCell id="48AFSIEWqDW7JCnG5Q9u-2" style="edgeStyle=orthogonalEdgeStyle;rounded=0;orthogonalLoop=1;jettySize=auto;html=1;" edge="1" parent="1" source="DHNR9YjNqf1AoPR-M__F-3" target="rI4cwnE-2VUMRHsRp58S-3">
          <mxGeometry relative="1" as="geometry" />
        </mxCell>
        <mxCell id="TqmPAoupVp24aiMdTwF0-30" style="edgeStyle=orthogonalEdgeStyle;rounded=0;orthogonalLoop=1;jettySize=auto;html=1;entryX=0;entryY=0.5;entryDx=0;entryDy=0;entryPerimeter=0;" edge="1" parent="1" source="DHNR9YjNqf1AoPR-M__F-3" target="TqmPAoupVp24aiMdTwF0-27">
          <mxGeometry relative="1" as="geometry" />
        </mxCell>
        <mxCell id="DHNR9YjNqf1AoPR-M__F-3" value="is choice not equal to 4?" style="strokeWidth=2;html=1;shape=mxgraph.flowchart.decision;whiteSpace=wrap;" vertex="1" parent="1">
          <mxGeometry x="163.74999999999997" y="10" width="162.49" height="125" as="geometry" />
        </mxCell>
        <mxCell id="TqmPAoupVp24aiMdTwF0-1" value="NO" style="text;html=1;align=center;verticalAlign=middle;resizable=0;points=[];autosize=1;strokeColor=none;fillColor=none;" vertex="1" parent="1">
          <mxGeometry x="210" y="130" width="40" height="30" as="geometry" />
        </mxCell>
        <mxCell id="TqmPAoupVp24aiMdTwF0-11" style="edgeStyle=orthogonalEdgeStyle;rounded=0;orthogonalLoop=1;jettySize=auto;html=1;" edge="1" parent="1" source="TqmPAoupVp24aiMdTwF0-9" target="rMAIrorEzhCA4giylJwH-3">
          <mxGeometry relative="1" as="geometry" />
        </mxCell>
        <mxCell id="TqmPAoupVp24aiMdTwF0-9" value="" style="verticalLabelPosition=bottom;verticalAlign=top;html=1;shape=mxgraph.flowchart.or;" vertex="1" parent="1">
          <mxGeometry x="-166.75" y="1510" width="30" height="30" as="geometry" />
        </mxCell>
        <mxCell id="TqmPAoupVp24aiMdTwF0-14" value="" style="verticalLabelPosition=bottom;verticalAlign=top;html=1;shape=mxgraph.flowchart.on-page_reference;" vertex="1" parent="1">
          <mxGeometry x="-485.49" y="1040" width="46" height="40" as="geometry" />
        </mxCell>
        <mxCell id="TqmPAoupVp24aiMdTwF0-15" value="X" style="text;html=1;align=center;verticalAlign=middle;resizable=0;points=[];autosize=1;strokeColor=none;fillColor=none;" vertex="1" parent="1">
          <mxGeometry x="-477.49" y="1045" width="30" height="30" as="geometry" />
        </mxCell>
        <mxCell id="TqmPAoupVp24aiMdTwF0-36" style="edgeStyle=orthogonalEdgeStyle;rounded=0;orthogonalLoop=1;jettySize=auto;html=1;exitX=1;exitY=0.5;exitDx=0;exitDy=0;exitPerimeter=0;entryX=0;entryY=0.5;entryDx=0;entryDy=0;entryPerimeter=0;" edge="1" parent="1" source="TqmPAoupVp24aiMdTwF0-18" target="DHNR9YjNqf1AoPR-M__F-1">
          <mxGeometry relative="1" as="geometry" />
        </mxCell>
        <mxCell id="TqmPAoupVp24aiMdTwF0-18" value="" style="verticalLabelPosition=bottom;verticalAlign=top;html=1;shape=mxgraph.flowchart.on-page_reference;" vertex="1" parent="1">
          <mxGeometry x="60" y="-65" width="46" height="40" as="geometry" />
        </mxCell>
        <mxCell id="TqmPAoupVp24aiMdTwF0-19" value="X" style="text;html=1;align=center;verticalAlign=middle;resizable=0;points=[];autosize=1;strokeColor=none;fillColor=none;" vertex="1" parent="1">
          <mxGeometry x="68" y="-60" width="30" height="30" as="geometry" />
        </mxCell>
        <mxCell id="TqmPAoupVp24aiMdTwF0-25" style="edgeStyle=orthogonalEdgeStyle;rounded=0;orthogonalLoop=1;jettySize=auto;html=1;exitX=0;exitY=0.5;exitDx=0;exitDy=0;exitPerimeter=0;entryX=1;entryY=0.5;entryDx=0;entryDy=0;entryPerimeter=0;" edge="1" parent="1" source="TqmPAoupVp24aiMdTwF0-22" target="TqmPAoupVp24aiMdTwF0-9">
          <mxGeometry relative="1" as="geometry" />
        </mxCell>
        <mxCell id="TqmPAoupVp24aiMdTwF0-22" value="" style="verticalLabelPosition=bottom;verticalAlign=top;html=1;shape=mxgraph.flowchart.on-page_reference;" vertex="1" parent="1">
          <mxGeometry x="-46.5" y="1505" width="46" height="40" as="geometry" />
        </mxCell>
        <mxCell id="TqmPAoupVp24aiMdTwF0-23" value="Y" style="text;html=1;align=center;verticalAlign=middle;resizable=0;points=[];autosize=1;strokeColor=none;fillColor=none;" vertex="1" parent="1">
          <mxGeometry x="-38.5" y="1510" width="30" height="30" as="geometry" />
        </mxCell>
        <mxCell id="TqmPAoupVp24aiMdTwF0-27" value="" style="verticalLabelPosition=bottom;verticalAlign=top;html=1;shape=mxgraph.flowchart.on-page_reference;" vertex="1" parent="1">
          <mxGeometry x="387" y="52.5" width="46" height="40" as="geometry" />
        </mxCell>
        <mxCell id="TqmPAoupVp24aiMdTwF0-28" value="Y" style="text;html=1;align=center;verticalAlign=middle;resizable=0;points=[];autosize=1;strokeColor=none;fillColor=none;" vertex="1" parent="1">
          <mxGeometry x="395" y="57.5" width="30" height="30" as="geometry" />
        </mxCell>
        <mxCell id="TqmPAoupVp24aiMdTwF0-31" value="YES" style="text;html=1;align=center;verticalAlign=middle;resizable=0;points=[];autosize=1;strokeColor=none;fillColor=none;" vertex="1" parent="1">
          <mxGeometry x="312.5" y="50" width="50" height="30" as="geometry" />
        </mxCell>
        <mxCell id="TqmPAoupVp24aiMdTwF0-32" value="" style="verticalLabelPosition=bottom;verticalAlign=top;html=1;shape=mxgraph.flowchart.on-page_reference;" vertex="1" parent="1">
          <mxGeometry x="222" y="1380" width="46" height="40" as="geometry" />
        </mxCell>
        <mxCell id="TqmPAoupVp24aiMdTwF0-33" value="X" style="text;html=1;align=center;verticalAlign=middle;resizable=0;points=[];autosize=1;strokeColor=none;fillColor=none;" vertex="1" parent="1">
          <mxGeometry x="230" y="1385" width="30" height="30" as="geometry" />
        </mxCell>
        <mxCell id="TqmPAoupVp24aiMdTwF0-37" value="" style="verticalLabelPosition=bottom;verticalAlign=top;html=1;shape=mxgraph.flowchart.on-page_reference;" vertex="1" parent="1">
          <mxGeometry x="507" y="760" width="46" height="40" as="geometry" />
        </mxCell>
        <mxCell id="TqmPAoupVp24aiMdTwF0-38" value="X" style="text;html=1;align=center;verticalAlign=middle;resizable=0;points=[];autosize=1;strokeColor=none;fillColor=none;" vertex="1" parent="1">
          <mxGeometry x="515" y="765" width="30" height="30" as="geometry" />
        </mxCell>
        <mxCell id="TqmPAoupVp24aiMdTwF0-40" value="" style="verticalLabelPosition=bottom;verticalAlign=top;html=1;shape=mxgraph.flowchart.on-page_reference;" vertex="1" parent="1">
          <mxGeometry x="1050" y="1395" width="46" height="40" as="geometry" />
        </mxCell>
        <mxCell id="TqmPAoupVp24aiMdTwF0-41" value="X" style="text;html=1;align=center;verticalAlign=middle;resizable=0;points=[];autosize=1;strokeColor=none;fillColor=none;" vertex="1" parent="1">
          <mxGeometry x="1058" y="1400" width="30" height="30" as="geometry" />
        </mxCell>
      </root>
    </mxGraphModel>
  </diagram>
</mxfile>
